<svg width="64" height="64" viewBox="0 0 830 1024" fill="none" xmlns="http://www.w3.org/2000/svg">
  <rect width="830" height="1024" rx="160" fill="black"/>
  <g transform="translate(68 64) scale(0.84)">
    <path
      d="M415 34C431 34 446 42 472 59C548 108 634 142 759 157C796 161 823 194 825 232C839 496 744 767 431 956C421 962 409 962 399 956C86 767 -9 496 5 232C7 194 34 161 71 157C196 142 282 108 358 59C384 42 399 34 415 34ZM415 120C326 177 218 213 106 229C93 231 83 242 82 255C75 420 116 620 237 770C281 824 334 870 397 908C408 915 422 915 433 908C496 870 549 824 593 770C714 620 755 420 748 255C747 242 737 231 724 229C612 213 504 177 415 120Z"
      fill="white"
    />
    <path
      d="M418 200C422 197 428 198 432 202L509 279C514 284 517 291 517 299V582L496 606V315L430 249V768C430 779 424 789 414 794L343 833C333 839 320 839 310 833L226 782V338C226 329 230 320 237 315L418 200Z"
      fill="white"
    />
    <path
      d="M192 445C204 437 216 429 228 421C234 417 242 421 242 429V718C202 684 170 641 145 591V486C145 476 150 467 159 461C170 454 181 449 192 445Z"
      fill="white"
    />
    <path
      d="M554 427C561 422 570 422 577 427L628 464C635 469 639 477 639 486V568C624 563 608 560 592 558V490L554 463V589L504 610V467C504 458 508 450 515 445L554 427Z"
      fill="white"
    />
    <path
      d="M524 623C592 587 679 600 733 654C789 708 802 792 771 859L859 947C878 966 878 997 859 1016C840 1035 809 1035 790 1016L702 928C635 959 551 946 497 890C431 822 432 714 498 649C506 641 515 632 524 623Z"
      fill="white"
    />
    <circle cx="615" cy="773" r="133" fill="black"/>
    <rect x="535" y="786" width="40" height="76" rx="7" fill="white"/>
    <rect x="594" y="748" width="40" height="114" rx="7" fill="white"/>
    <rect x="653" y="699" width="42" height="163" rx="7" fill="white"/>
  </g>
</svg>
