<svg width="830" height="1024" viewBox="0 0 830 1024" fill="none" xmlns="http://www.w3.org/2000/svg" role="img" aria-labelledby="title desc">
  <title id="title">Bantay Bayan risk radar logo</title>
  <desc id="desc">Blue shield with city buildings and a magnifying glass chart.</desc>
  <defs>
    <linearGradient id="shieldGradient" x1="136" y1="876" x2="701" y2="122" gradientUnits="userSpaceOnUse">
      <stop stop-color="#123FB8"/>
      <stop offset="0.52" stop-color="#0877E7"/>
      <stop offset="1" stop-color="#22B7F2"/>
    </linearGradient>
    <linearGradient id="innerGradient" x1="188" y1="730" x2="579" y2="178" gradientUnits="userSpaceOnUse">
      <stop stop-color="#0B3FB5"/>
      <stop offset="0.55" stop-color="#0879E8"/>
      <stop offset="1" stop-color="#20B6F2"/>
    </linearGradient>
    <filter id="softShadow" x="0" y="20" width="830" height="950" filterUnits="userSpaceOnUse" color-interpolation-filters="sRGB">
      <feFlood flood-opacity="0" result="BackgroundImageFix"/>
      <feColorMatrix in="SourceAlpha" type="matrix" values="0 0 0 0 0 0 0 0 0 0 0 0 0 0 0 0 0 0 127 0" result="hardAlpha"/>
      <feOffset dy="10"/>
      <feGaussianBlur stdDeviation="18"/>
      <feComposite in2="hardAlpha" operator="out"/>
      <feColorMatrix type="matrix" values="0 0 0 0 0.015 0 0 0 0 0.144 0 0 0 0 0.36 0 0 0 0.22 0"/>
      <feBlend mode="normal" in2="BackgroundImageFix" result="effect1_dropShadow"/>
      <feBlend mode="normal" in="SourceGraphic" in2="effect1_dropShadow" result="shape"/>
    </filter>
  </defs>

  <g filter="url(#softShadow)">
    <path
      d="M415 34C431 34 446 42 472 59C548 108 634 142 759 157C796 161 823 194 825 232C839 496 744 767 431 956C421 962 409 962 399 956C86 767 -9 496 5 232C7 194 34 161 71 157C196 142 282 108 358 59C384 42 399 34 415 34Z"
      fill="url(#shieldGradient)"
    />
    <path
      d="M415 120C504 177 612 213 724 229C737 231 747 242 748 255C755 420 714 620 593 770C549 824 496 870 433 908C422 915 408 915 397 908C334 870 281 824 237 770C116 620 75 420 82 255C83 242 93 231 106 229C218 213 326 177 415 120Z"
      fill="white"
    />
    <path
      d="M418 200C422 197 428 198 432 202L509 279C514 284 517 291 517 299V582L496 606V315L430 249V768C430 779 424 789 414 794L343 833C333 839 320 839 310 833L226 782V338C226 329 230 320 237 315L418 200Z"
      fill="url(#innerGradient)"
    />
    <path
      d="M192 445C204 437 216 429 228 421C234 417 242 421 242 429V718C202 684 170 641 145 591V486C145 476 150 467 159 461C170 454 181 449 192 445Z"
      fill="url(#innerGradient)"
    />
    <path
      d="M554 427C561 422 570 422 577 427L628 464C635 469 639 477 639 486V568C624 563 608 560 592 558V490L554 463V589L504 610V467C504 458 508 450 515 445L554 427Z"
      fill="url(#innerGradient)"
    />
    <path
      d="M524 623C592 587 679 600 733 654C789 708 802 792 771 859L859 947C878 966 878 997 859 1016C840 1035 809 1035 790 1016L702 928C635 959 551 946 497 890C431 822 432 714 498 649C506 641 515 632 524 623Z"
      fill="url(#shieldGradient)"
    />
    <circle cx="615" cy="773" r="133" fill="white"/>
    <rect x="535" y="786" width="40" height="76" rx="7" fill="url(#innerGradient)"/>
    <rect x="594" y="748" width="40" height="114" rx="7" fill="url(#innerGradient)"/>
    <rect x="653" y="699" width="42" height="163" rx="7" fill="url(#innerGradient)"/>
  </g>
</svg>
